<?xml version="1.0" encoding="UTF-8"?>
<!DOCTYPE svg PUBLIC "-//W3C//DTD SVG 1.1//EN" "http://www.w3.org/Graphics/SVG/1.1/DTD/svg11.dtd">
<!-- Creator: CorelDRAW 2021 (64-Bit) -->
<svg xmlns="http://www.w3.org/2000/svg" xml:space="preserve" width="88.8937mm" height="20.6889mm" version="1.1" style="shape-rendering:geometricPrecision; text-rendering:geometricPrecision; image-rendering:optimizeQuality; fill-rule:evenodd; clip-rule:evenodd"
viewBox="0 0 8206.09 1909.87"
 xmlns:xlink="http://www.w3.org/1999/xlink"
 xmlns:xodm="http://www.corel.com/coreldraw/odm/2003">
 <defs>
  <style type="text/css">
   <![CDATA[
    .fil0 {fill:white}
    .fil2 {fill:black;fill-rule:nonzero}
    .fil1 {fill:black;fill-rule:nonzero}
   ]]>
  </style>
 </defs>
 <g id="Capa_x0020_1">
  <metadata id="CorelCorpID_0Corel-Layer"/>
  <g>
   <path class="fil0" d="M861.26 65.44l6972.7 0c231.92,0 369.5,189.75 305.73,421.67l-257.24 935.63c-63.77,231.94 -305.69,421.69 -537.61,421.69l-6972.7 0c-231.94,0 -369.51,-189.75 -305.75,-421.69l257.24 -935.63c63.77,-231.92 305.7,-421.67 537.62,-421.67z"/>
   <path id="_1" class="fil1" d="M7833.88 130.88l-6972.7 0 0.15 -130.88 6972.7 0 0 0 -0.15 130.88zm353.75 377.98l-95.9 -43.5 0 0 4.47 -17.9 3.45 -17.42 2.49 -16.93 1.56 -16.42 0.68 -15.91 -0.17 -15.45 -0.97 -14.95 -1.77 -14.51 -2.53 -14.11 -3.26 -13.67 -4.01 -13.26 -4.74 -12.91 -5.49 -12.55 -6.22 -12.16 -7 -11.8 -7.75 -11.43 -8.51 -11 -9.3 -10.58 -10.05 -10.1 -10.86 -9.61 -11.62 -9.08 -12.4 -8.49 -13.15 -7.87 -13.92 -7.22 -14.65 -6.52 -15.39 -5.77 -16.12 -4.99 -16.8 -4.17 -17.47 -3.3 -18.15 -2.41 -18.8 -1.47 -19.42 -0.5 0.15 -130.88 23.5 0.61 22.99 1.8 22.45 2.98 21.9 4.14 21.32 5.3 20.68 6.42 20.1 7.52 19.43 8.64 18.76 9.73 18.05 10.81 17.33 11.87 16.55 12.92 15.75 13.95 14.93 14.99 14.04 15.99 13.13 16.97 12.15 17.91 11.15 18.83 10.1 19.73 8.98 20.54 7.85 21.32 6.65 22.04 5.42 22.68 4.15 23.22 2.88 23.74 1.58 24.18 0.26 24.5 -1.05 24.8 -2.39 25.01 -3.69 25.15 -5 25.27 -6.31 25.32 0 0zm-353.14 892.13l257.24 -935.63 95.9 43.5 -257.24 935.63 0 0 -95.9 -43.5zm-489.73 508.88l0.15 -130.88 0 0 19.78 -0.5 19.85 -1.5 19.91 -2.46 19.9 -3.41 19.88 -4.35 19.84 -5.25 19.71 -6.12 19.57 -7 19.4 -7.83 19.17 -8.64 18.92 -9.41 18.63 -10.18 18.3 -10.9 17.92 -11.59 17.51 -12.26 17.07 -12.9 16.59 -13.51 16.06 -14.07 15.51 -14.59 14.91 -15.1 14.28 -15.57 13.63 -16 12.93 -16.39 12.2 -16.75 11.44 -17.04 10.64 -17.32 9.85 -17.56 9 -17.73 8.13 -17.88 7.26 -18 6.34 -18.07 5.46 -18.14 95.9 43.5 -7.54 25.1 -8.65 24.6 -9.71 24.09 -10.7 23.53 -11.66 23 -12.55 22.38 -13.41 21.82 -14.24 21.21 -15.01 20.59 -15.74 19.97 -16.45 19.32 -17.12 18.66 -17.75 17.98 -18.35 17.29 -18.92 16.56 -19.45 15.83 -19.95 15.07 -20.43 14.31 -20.87 13.51 -21.27 12.66 -21.64 11.83 -22 10.96 -22.31 10.04 -22.59 9.12 -22.86 8.16 -23.07 7.17 -23.25 6.16 -23.43 5.12 -23.56 4.03 -23.66 2.93 -23.72 1.77 -23.75 0.61 0 0zm-6972.55 -130.88l6972.7 0 -0.15 130.88 -6972.7 0 0 0 0.15 -130.88zm-353.77 -378l95.9 43.5 0 0 -4.47 17.91 -3.45 17.41 -2.48 16.92 -1.56 16.41 -0.68 15.94 0.17 15.44 0.98 14.97 1.75 14.51 2.52 14.08 3.28 13.68 4.01 13.28 4.74 12.91 5.49 12.55 6.23 12.17 6.99 11.8 7.74 11.41 8.53 11.01 9.29 10.58 10.05 10.1 10.87 9.61 11.62 9.08 12.4 8.49 13.15 7.87 13.92 7.22 14.65 6.52 15.39 5.76 16.13 5 16.79 4.17 17.47 3.3 18.15 2.41 18.8 1.47 19.42 0.5 -0.15 130.88 -23.5 -0.61 -22.99 -1.8 -22.45 -2.98 -21.91 -4.14 -21.32 -5.3 -20.69 -6.41 -20.1 -7.53 -19.43 -8.64 -18.76 -9.73 -18.05 -10.81 -17.33 -11.87 -16.55 -12.92 -15.74 -13.95 -14.95 -14.99 -14.03 -15.99 -13.13 -16.96 -12.17 -17.93 -11.14 -18.83 -10.09 -19.72 -8.98 -20.54 -7.85 -21.32 -6.65 -22.04 -5.42 -22.67 -4.16 -23.25 -2.88 -23.74 -1.57 -24.17 -0.26 -24.49 1.05 -24.79 2.37 -25 3.7 -25.17 5 -25.26 6.31 -25.33 0 0zm353.14 -892.13l-257.24 935.63 -95.9 -43.5 257.24 -935.63 0 0 95.9 43.5zm489.75 -508.86l-0.15 130.88 0 0 -19.78 0.5 -19.85 1.5 -19.91 2.46 -19.9 3.41 -19.88 4.35 -19.84 5.25 -19.72 6.13 -19.57 6.99 -19.4 7.83 -19.17 8.64 -18.92 9.42 -18.64 10.18 -18.3 10.88 -17.91 11.59 -17.52 12.27 -17.07 12.89 -16.57 13.51 -16.07 14.07 -15.51 14.6 -14.92 15.1 -14.29 15.57 -13.63 15.99 -12.92 16.38 -12.2 16.75 -11.44 17.04 -10.64 17.31 -9.85 17.57 -9 17.72 -8.13 17.89 -7.26 17.99 -6.34 18.07 -5.46 18.13 -95.9 -43.5 7.54 -25.09 8.65 -24.61 9.71 -24.08 10.7 -23.54 11.66 -22.99 12.55 -22.39 13.41 -21.81 14.24 -21.21 15.01 -20.59 15.75 -19.98 16.45 -19.31 17.11 -18.66 17.76 -17.98 18.35 -17.28 18.92 -16.56 19.45 -15.83 19.97 -15.08 20.42 -14.3 20.86 -13.5 21.27 -12.67 21.65 -11.83 22 -10.95 22.31 -10.04 22.59 -9.12 22.86 -8.17 23.08 -7.16 23.25 -6.16 23.43 -5.12 23.56 -4.03 23.66 -2.93 23.72 -1.77 23.75 -0.61 0 0z"/>
  </g>
  <path class="fil2" d="M1382.41 1393.59l-121.45 -231.56c-12.1,-23.06 -23.63,-42.08 -34.98,-57.46 -11.14,-15.56 -22.87,-27.86 -34.77,-37.08 -11.92,-9.04 -24.8,-15.76 -38.44,-19.61 -13.83,-4.03 -29.01,-5.95 -45.93,-5.95l-88.78 0 0 351.66 -74.94 0 0 -807.09 232.33 0c30.36,0 59.76,4.42 88.2,13.46 28.25,9.03 53.42,22.28 75.52,39.96 22.1,17.68 39.97,39.78 53.23,66.3 13.27,26.71 19.99,57.65 19.99,92.81 0,28.44 -4.23,54.77 -12.87,78.79 -8.65,23.83 -20.95,45.16 -36.9,63.8 -15.95,18.44 -35.17,34.2 -57.84,47.08 -22.87,13.06 -48.43,22.67 -76.86,29.01l0 2.31c10.95,4.42 20.75,10.38 29.78,17.48 9.03,7.12 17.68,15.76 26.13,25.95 8.46,9.99 16.72,21.71 24.98,34.77 8.26,13.27 16.91,28.25 25.76,45.16l135.47 250.2 -87.62 0zm-364.34 -737.91l0 318.22 133.74 0c27.09,0 51.7,-3.84 74.17,-11.72 22.49,-7.87 41.71,-19.21 57.65,-33.81 15.95,-14.42 28.25,-32.1 37.09,-52.66 8.83,-20.56 13.26,-43.81 13.26,-69.57 0,-46.89 -14.99,-83.59 -45.16,-110.3 -30.17,-26.72 -73.79,-40.17 -130.86,-40.17l-139.89 0z"/>
  <path id="_1_0" class="fil2" d="M1629.73 1405.12c-14.99,0 -27.86,-5.19 -38.24,-15.76 -10.57,-10.38 -15.76,-23.25 -15.76,-38.24 0,-15.19 5.19,-28.25 15.37,-38.62 10.38,-10.57 23.25,-15.76 38.62,-15.76 7.5,0 14.41,1.34 20.95,4.23 6.54,2.88 12.3,6.53 17.11,11.14 4.99,4.8 8.83,10.38 11.91,17.11 2.88,6.91 4.42,14.22 4.42,21.91 0,7.49 -1.54,14.6 -4.42,21.13 -3.07,6.54 -6.91,12.31 -11.91,17.11 -4.81,4.8 -10.57,8.65 -17.11,11.53 -6.54,2.88 -13.45,4.23 -20.95,4.23z"/>
  <polygon id="_2" class="fil2" points="2376.08,1393.59 2376.08,1016.57 1935.64,1016.57 1935.64,1393.59 1860.7,1393.59 1860.7,586.5 1935.64,586.5 1935.64,948.54 2376.08,948.54 2376.08,586.5 2451.02,586.5 2451.02,1393.59 "/>
  <path id="_3" class="fil2" d="M2814.98 1498.52c-22.68,56.3 -48.43,98 -77.83,125.29 -29.21,27.09 -64.76,40.74 -106.26,40.74 -20.76,0 -38.05,-2.5 -52.46,-7.3l0 -67.45c8.26,3.08 16.72,5.2 24.98,6.73 8.46,1.54 17.11,2.31 25.55,2.31 23.64,0 44.2,-7.5 61.69,-22.29 17.29,-14.8 32.47,-37.28 45.15,-67.26l49.97 -118.36 -221.38 -573.8 79.94 0 164.87 456.58c2.31,6.15 4.42,12.87 6.54,20.56 2.11,7.69 4.03,15.37 5.95,22.87l2.7 0c1.92,-6.34 3.65,-12.88 5.38,-19.4 1.73,-6.54 4.03,-13.84 7.11,-21.72l175.05 -458.88 75.91 0 -272.87 681.41z"/>
  <path id="_4" class="fil2" d="M3586.31 1393.59l0 -101.07 -2.31 0c-19.03,36.32 -46.5,64.76 -81.86,84.74 -35.55,20.17 -75.9,30.17 -120.87,30.17 -36.12,0 -68.79,-6.73 -98.39,-19.99 -29.4,-13.45 -54.77,-32.67 -75.72,-57.84 -20.94,-25.17 -37.27,-55.54 -48.8,-91.28 -11.34,-35.73 -17.11,-76.09 -17.11,-121.06 0,-46.69 6.34,-89.17 18.83,-127.79 12.68,-38.43 30.56,-71.48 53.61,-99.15 23.06,-27.68 50.92,-49 83.4,-64.19 32.48,-15.18 68.61,-22.87 108.39,-22.87 83.02,0 142.59,33.24 178.52,99.74l2.31 0 0 -362.62 72.64 0 0 853.21 -72.64 0zm0 -348.2c0,-25.17 -4.42,-48.82 -13.06,-70.53 -8.65,-21.71 -20.57,-40.74 -35.94,-56.87 -15.56,-16.15 -34.02,-29.02 -55.73,-38.44 -21.52,-9.42 -45.35,-14.02 -71.29,-14.02 -28.63,0 -54.95,5.57 -78.97,16.91 -24.02,11.34 -44.77,27.47 -61.88,48.81 -17.11,21.14 -30.36,47.08 -39.97,77.44 -9.61,30.36 -14.41,64.95 -14.41,103.77 0,36.32 4.42,68.99 13.06,98 8.65,29.01 20.95,53.42 36.9,73.21 15.95,19.99 34.98,35.16 57.26,45.73 22.1,10.57 46.9,15.76 73.8,15.76 29.4,0 55.91,-5.19 79.36,-15.76 23.45,-10.57 43.43,-24.98 59.76,-43.42 16.33,-18.45 29.01,-39.97 37.86,-64.76 8.83,-24.8 13.26,-51.31 13.26,-79.56l0 -96.27z"/>
  <path id="_5" class="fil2" d="M4130.7 891.08c-16.9,-12.49 -38.62,-18.64 -65.33,-18.64 -19.03,0 -35.94,3.66 -50.54,10.96 -14.8,7.3 -27.48,17.1 -38.62,29.59 -11.14,12.31 -20.36,26.72 -28.05,43.05 -7.88,16.34 -14.03,33.24 -18.64,50.93 -4.81,17.68 -8.08,35.55 -10.19,53.41 -2.11,18.07 -3.07,35.17 -3.07,51.31l0 281.91 -71.48 0 0 -576.49 71.48 0 0 123.56 2.31 0c6.73,-20.95 15.19,-39.97 25.56,-56.5 10.38,-16.72 22.28,-30.94 35.74,-42.28 13.45,-11.53 28.25,-20.17 44.19,-26.13 15.95,-5.95 32.67,-9.03 50.35,-9.03 11.72,0 22.1,0.77 31.32,2.31 9.04,1.34 17.49,3.65 24.98,6.72l0 75.33z"/>
  <path id="_6" class="fil2" d="M4454.88 1407.43c-42.66,0 -81.09,-7.11 -114.91,-21.33 -34.01,-14.41 -63.02,-34.59 -87.04,-60.72 -24.03,-26.13 -42.28,-57.26 -54.96,-93.77 -12.88,-36.51 -19.22,-76.87 -19.22,-121.25 0,-48.04 6.73,-91.09 20.18,-128.94 13.64,-38.05 32.86,-70.14 57.65,-96.66 24.98,-26.51 55.15,-46.69 90.32,-60.53 35.36,-14.02 74.75,-20.95 118.18,-20.95 41.7,0 79.17,6.92 112.41,20.57 33.43,13.64 61.67,33.62 84.93,59.38 23.25,25.94 41.13,57.65 53.42,94.73 12.49,37.29 18.64,79.56 18.64,126.83 0,45.16 -6.54,86.09 -19.4,123.17 -12.88,37.09 -31.32,68.8 -55.34,95.51 -24.02,26.72 -53.23,47.27 -87.81,62.07 -34.4,14.6 -73.41,21.91 -117.04,21.91zm5.77 -541.9c-31.71,0 -60.15,5.38 -85.7,16.33 -25.56,10.96 -47.47,26.72 -65.72,47.66 -18.26,20.75 -32.28,46.3 -42.09,76.67 -9.8,30.17 -14.6,64.57 -14.6,102.81 0,36.12 4.8,68.6 14.6,97.43 9.8,29.01 23.63,53.8 41.5,74.56 17.87,20.56 39.58,36.51 65.15,47.46 25.56,11.15 53.99,16.72 85.7,16.72 32.28,0 60.92,-5.38 85.7,-16.14 24.79,-10.57 45.72,-26.13 63.02,-46.7 17.29,-20.56 30.36,-45.54 39.2,-75.33 8.84,-29.59 13.27,-63.41 13.27,-101.46 0,-77.63 -17.3,-137.21 -51.89,-178.32 -34.58,-41.13 -83.96,-61.68 -148.14,-61.68z"/>
  <polygon id="_7" class="fil2" points="5123.21,655.68 5123.21,1393.59 5048.27,1393.59 5048.27,655.68 4815.37,655.68 4815.37,586.5 5356.12,586.5 5356.12,655.68 "/>
  <path id="_8" class="fil2" d="M5593.62 1407.43c-42.66,0 -81.09,-7.11 -114.91,-21.33 -34.01,-14.41 -63.02,-34.59 -87.04,-60.72 -24.03,-26.13 -42.28,-57.26 -54.96,-93.77 -12.88,-36.51 -19.22,-76.87 -19.22,-121.25 0,-48.04 6.73,-91.09 20.18,-128.94 13.64,-38.05 32.86,-70.14 57.65,-96.66 24.98,-26.51 55.15,-46.69 90.32,-60.53 35.36,-14.02 74.75,-20.95 118.18,-20.95 41.7,0 79.17,6.92 112.41,20.57 33.44,13.64 61.68,33.62 84.94,59.38 23.25,25.94 41.13,57.65 53.42,94.73 12.49,37.29 18.64,79.56 18.64,126.83 0,45.16 -6.54,86.09 -19.4,123.17 -12.88,37.09 -31.32,68.8 -55.34,95.51 -24.02,26.72 -53.23,47.27 -87.82,62.07 -34.4,14.6 -73.41,21.91 -117.04,21.91zm5.77 -541.9c-31.71,0 -60.15,5.38 -85.7,16.33 -25.56,10.96 -47.47,26.72 -65.72,47.66 -18.26,20.75 -32.28,46.3 -42.09,76.67 -9.8,30.17 -14.6,64.57 -14.6,102.81 0,36.12 4.8,68.6 14.6,97.43 9.8,29.01 23.63,53.8 41.5,74.56 17.87,20.56 39.58,36.51 65.15,47.46 25.56,11.15 53.99,16.72 85.7,16.72 32.28,0 60.92,-5.38 85.7,-16.14 24.79,-10.57 45.73,-26.13 63.03,-46.7 17.29,-20.56 30.36,-45.54 39.2,-75.33 8.84,-29.59 13.27,-63.41 13.27,-101.46 0,-77.63 -17.3,-137.21 -51.89,-178.32 -34.59,-41.13 -83.97,-61.68 -148.15,-61.68z"/>
  <path id="_9" class="fil2" d="M6254.46 1407.43c-42.66,0 -81.09,-7.11 -114.91,-21.33 -34.01,-14.41 -63.02,-34.59 -87.04,-60.72 -24.03,-26.13 -42.28,-57.26 -54.96,-93.77 -12.88,-36.51 -19.22,-76.87 -19.22,-121.25 0,-48.04 6.73,-91.09 20.18,-128.94 13.64,-38.05 32.86,-70.14 57.65,-96.66 24.98,-26.51 55.15,-46.69 90.32,-60.53 35.36,-14.02 74.75,-20.95 118.18,-20.95 41.7,0 79.17,6.92 112.41,20.57 33.44,13.64 61.68,33.62 84.94,59.38 23.25,25.94 41.13,57.65 53.42,94.73 12.49,37.29 18.64,79.56 18.64,126.83 0,45.16 -6.54,86.09 -19.4,123.17 -12.88,37.09 -31.32,68.8 -55.34,95.51 -24.02,26.72 -53.23,47.27 -87.82,62.07 -34.4,14.6 -73.41,21.91 -117.04,21.91zm5.77 -541.9c-31.71,0 -60.15,5.38 -85.7,16.33 -25.56,10.96 -47.47,26.72 -65.72,47.66 -18.26,20.75 -32.28,46.3 -42.09,76.67 -9.8,30.17 -14.6,64.57 -14.6,102.81 0,36.12 4.8,68.6 14.6,97.43 9.8,29.01 23.63,53.8 41.5,74.56 17.87,20.56 39.58,36.51 65.15,47.46 25.56,11.15 53.99,16.72 85.7,16.72 32.28,0 60.92,-5.38 85.7,-16.14 24.79,-10.57 45.73,-26.13 63.03,-46.7 17.29,-20.56 30.36,-45.54 39.2,-75.33 8.84,-29.59 13.27,-63.41 13.27,-101.46 0,-77.63 -17.3,-137.21 -51.89,-178.32 -34.59,-41.13 -83.97,-61.68 -148.15,-61.68z"/>
  <polygon id="_10" class="fil2" points="6680.68,1393.59 6680.68,540.39 6753.31,540.39 6753.31,1393.59 "/>
  <path id="_11" class="fil2" d="M6906.28 1290.02c10.95,8.65 22.67,16.33 35.36,23.06 12.68,6.73 25.94,12.49 39.39,17.48 13.45,4.81 26.9,8.46 40.74,10.96 13.64,2.49 26.52,3.65 39.01,3.65 85.32,0 127.98,-32.09 127.98,-96.08 0,-14.6 -3.07,-27.29 -9.04,-38.05 -5.95,-10.75 -14.6,-20.56 -25.75,-29.39 -11.34,-8.84 -24.79,-16.91 -40.54,-24.41 -15.76,-7.5 -33.63,-15.37 -53.42,-23.63 -26.72,-10.96 -49.58,-22.1 -68.8,-33.25 -19.02,-11.34 -34.77,-23.63 -47.26,-36.89 -12.31,-13.46 -21.53,-28.06 -27.48,-44.01 -5.95,-15.95 -9.04,-34.21 -9.04,-54.38 0,-25.56 5.58,-48.43 16.53,-68.22 11.14,-19.99 25.94,-36.9 44.58,-50.74 18.83,-13.84 40.36,-24.59 64.76,-31.89 24.6,-7.3 50.35,-10.96 77.25,-10.96 49.78,0 93.01,9.42 130.1,28.05l0 75.91c-43.05,-27.87 -89.54,-41.7 -139.32,-41.7 -17.87,0 -34.2,2.31 -49,6.72 -14.8,4.62 -27.48,10.96 -38.05,19.22 -10.38,8.26 -18.64,18.25 -24.4,29.78 -5.77,11.53 -8.65,24.21 -8.65,38.05 0,14.41 2.31,26.9 6.73,37.47 4.61,10.76 11.53,20.57 21.13,29.21 9.61,8.46 21.91,16.72 37.09,24.8 15.18,7.87 33.63,16.33 55.54,25.36 27.67,11.15 51.69,22.29 71.87,33.44 20.37,11.15 37.09,23.06 50.15,36.13 13.07,12.88 22.87,27.29 29.21,43.42 6.34,15.95 9.61,34.41 9.61,55.35 0,25.94 -5.38,49.19 -15.95,69.36 -10.75,20.37 -25.55,37.47 -44.38,51.31 -18.83,13.84 -41.13,24.41 -66.49,31.52 -25.36,7.11 -53.03,10.76 -83.01,10.76 -58.04,0 -106.84,-12.3 -146.43,-36.7l0 -80.71z"/>
 </g>
</svg>
