<?xml version="1.0" encoding="UTF-8"?>
<!DOCTYPE svg PUBLIC "-//W3C//DTD SVG 1.1//EN" "http://www.w3.org/Graphics/SVG/1.1/DTD/svg11.dtd">
<!-- Creator: CorelDRAW 2021 (64-Bit) -->
<svg xmlns="http://www.w3.org/2000/svg" xml:space="preserve" width="88.8937mm" height="20.6889mm" version="1.1" style="shape-rendering:geometricPrecision; text-rendering:geometricPrecision; image-rendering:optimizeQuality; fill-rule:evenodd; clip-rule:evenodd"
viewBox="0 0 19028.98 4428.76"
 xmlns:xlink="http://www.w3.org/1999/xlink"
 xmlns:xodm="http://www.corel.com/coreldraw/odm/2003">
 <defs>
  <style type="text/css">
   <![CDATA[
    .fil1 {fill:black;fill-rule:nonzero}
    .fil0 {fill:black;fill-rule:nonzero}
   ]]>
  </style>
 </defs>
 <g id="Capa_x0020_1">
  <metadata id="CorelCorpID_0Corel-Layer"/>
  <g>
   <path class="fil0" d="M18165.88 303.5l-16168.89 0 0.34 -303.5 16168.89 0 0 0 -0.34 303.5zm820.32 876.49l-222.37 -100.87 0 0 10.36 -41.51 8.01 -40.39 5.78 -39.26 3.62 -38.08 1.58 -36.9 -0.39 -35.83 -2.25 -34.66 -4.11 -33.65 -5.87 -32.73 -7.56 -31.7 -9.29 -30.74 -11 -29.95 -12.74 -29.09 -14.43 -28.19 -16.23 -27.36 -17.98 -26.5 -19.74 -25.52 -21.56 -24.53 -23.31 -23.42 -25.17 -22.28 -26.95 -21.06 -28.75 -19.69 -30.5 -18.26 -32.28 -16.74 -33.97 -15.11 -35.68 -13.38 -37.38 -11.58 -38.96 -9.68 -40.5 -7.66 -42.09 -5.59 -43.58 -3.4 -45.04 -1.16 0.34 -303.5 54.5 1.41 53.3 4.17 52.06 6.91 50.78 9.59 49.45 12.29 47.95 14.88 46.6 17.45 45.06 20.04 43.5 22.56 41.85 25.07 40.18 27.53 38.38 29.97 36.52 32.35 34.61 34.76 32.56 37.08 30.44 39.35 28.17 41.53 25.86 43.67 23.42 45.75 20.83 47.63 18.2 49.43 15.41 51.12 12.57 52.6 9.63 53.84 6.68 55.06 3.66 56.06 0.6 56.81 -2.44 57.5 -5.54 57.99 -8.56 58.31 -11.6 58.59 -14.64 58.72 0 0zm-818.88 2068.74l596.51 -2169.61 222.37 100.87 -596.51 2169.61 0 0 -222.37 -100.87zm-1135.63 1180.03l0.34 -303.5 0 0 45.87 -1.16 46.02 -3.47 46.17 -5.72 46.15 -7.9 46.11 -10.08 46 -12.18 45.7 -14.19 45.38 -16.23 44.97 -18.15 44.46 -20.04 43.86 -21.81 43.2 -23.61 42.43 -25.28 41.55 -26.87 40.61 -28.43 39.58 -29.9 38.47 -31.32 37.25 -32.62 35.96 -33.84 34.57 -35.02 33.12 -36.11 31.6 -37.1 29.99 -38 28.3 -38.83 26.52 -39.52 24.68 -40.16 22.84 -40.72 20.87 -41.12 18.86 -41.46 16.83 -41.74 14.71 -41.89 12.65 -42.06 222.37 100.87 -17.49 58.2 -20.06 57.05 -22.52 55.87 -24.81 54.57 -27.04 53.32 -29.09 51.89 -31.1 50.6 -33.03 49.19 -34.81 47.74 -36.5 46.3 -38.15 44.8 -39.71 43.26 -41.16 41.7 -42.56 40.09 -43.88 38.4 -45.1 36.71 -46.26 34.96 -47.37 33.18 -48.4 31.32 -49.32 29.35 -50.18 27.42 -51.01 25.41 -51.74 23.29 -52.38 21.15 -53 18.92 -53.49 16.63 -53.92 14.28 -54.33 11.88 -54.63 9.35 -54.86 6.79 -55.01 4.11 -55.08 1.41 0 0zm-16168.55 -303.5l16168.89 0 -0.34 303.5 -16168.89 0 0 0 0.34 -303.5zm-820.36 -876.53l222.37 100.87 0 0 -10.36 41.53 -8.01 40.37 -5.76 39.24 -3.62 38.06 -1.58 36.97 0.39 35.81 2.27 34.72 4.07 33.65 5.84 32.64 7.6 31.72 9.29 30.8 11 29.93 12.74 29.09 14.45 28.21 16.2 27.36 17.94 26.46 19.78 25.54 21.53 24.53 23.31 23.42 25.2 22.28 26.95 21.06 28.75 19.69 30.5 18.26 32.28 16.74 33.97 15.11 35.68 13.36 37.4 11.6 38.94 9.68 40.52 7.66 42.09 5.59 43.58 3.4 45.04 1.16 -0.34 303.5 -54.5 -1.41 -53.3 -4.17 -52.06 -6.91 -50.8 -9.59 -49.43 -12.29 -47.97 -14.86 -46.6 -17.47 -45.06 -20.04 -43.5 -22.56 -41.85 -25.07 -40.18 -27.53 -38.38 -29.97 -36.5 -32.35 -34.66 -34.76 -32.54 -37.08 -30.44 -39.32 -28.21 -41.57 -25.84 -43.67 -23.4 -45.72 -20.83 -47.63 -18.2 -49.45 -15.41 -51.1 -12.57 -52.57 -9.65 -53.92 -6.68 -55.06 -3.64 -56.04 -0.6 -56.79 2.44 -57.48 5.5 -57.97 8.58 -58.38 11.6 -58.57 14.64 -58.74 0 0zm818.88 -2068.74l-596.51 2169.61 -222.37 -100.87 596.51 -2169.61 0 0 222.37 100.87zm1135.68 -1179.99l-0.34 303.5 0 0 -45.87 1.16 -46.02 3.47 -46.17 5.72 -46.15 7.9 -46.11 10.08 -46 12.18 -45.72 14.21 -45.38 16.2 -44.97 18.15 -44.46 20.04 -43.86 21.83 -43.22 23.61 -42.43 25.24 -41.53 26.89 -40.63 28.45 -39.58 29.88 -38.42 31.32 -37.27 32.62 -35.96 33.87 -34.59 35.02 -33.14 36.11 -31.6 37.08 -29.97 37.98 -28.3 38.83 -26.52 39.52 -24.68 40.14 -22.84 40.74 -20.87 41.1 -18.86 41.49 -16.83 41.72 -14.71 41.91 -12.65 42.04 -222.37 -100.87 17.49 -58.18 20.06 -57.07 22.52 -55.85 24.81 -54.59 27.04 -53.3 29.09 -51.91 31.1 -50.58 33.03 -49.19 34.81 -47.74 36.52 -46.32 38.15 -44.78 39.69 -43.26 41.19 -41.7 42.56 -40.07 43.86 -38.4 45.1 -36.71 46.3 -34.98 47.35 -33.16 48.38 -31.3 49.32 -29.39 50.2 -27.42 51.01 -25.39 51.74 -23.29 52.38 -21.15 53 -18.94 53.52 -16.61 53.92 -14.28 54.33 -11.88 54.63 -9.35 54.86 -6.79 55.01 -4.11 55.08 -1.41 0 0z"/>
  </g>
  <path class="fil1" d="M3731.27 3231.58l-281.62 -536.96c-28.06,-53.47 -54.8,-97.57 -81.11,-133.23 -25.84,-36.09 -53.02,-64.6 -80.64,-85.99 -27.64,-20.96 -57.5,-36.54 -89.14,-45.47 -32.07,-9.35 -67.28,-13.81 -106.5,-13.81l-205.87 0 0 815.46 -173.78 0 0 -1871.54 538.74 0c70.41,0 138.59,10.25 204.52,31.21 65.5,20.94 123.88,51.68 175.13,92.67 51.25,40.99 92.69,92.24 123.43,153.74 30.76,61.93 46.34,133.68 46.34,215.22 0,65.95 -9.8,127 -29.84,182.7 -20.06,55.25 -48.57,104.72 -85.56,147.94 -36.99,42.77 -81.56,79.31 -134.13,109.17 -53.02,30.29 -112.3,52.57 -178.23,67.28l0 5.35c25.39,10.25 48.12,24.06 69.06,40.54 20.94,16.5 40.99,36.54 60.6,60.17 19.61,23.16 38.77,50.35 57.93,80.64 19.16,30.76 39.22,65.5 59.72,104.72l314.14 580.18 -203.19 0zm-844.87 -1711.12l0 737.92 310.14 0c62.83,0 119.88,-8.91 172,-27.19 52.15,-18.26 96.71,-44.55 133.68,-78.41 36.99,-33.44 65.5,-74.43 86.01,-122.1 20.49,-47.67 30.74,-101.6 30.74,-161.32 0,-108.72 -34.76,-193.84 -104.72,-255.76 -69.96,-61.95 -171.1,-93.14 -303.46,-93.14l-324.39 0z"/>
  <path id="_1" class="fil1" d="M4304.77 3258.32c-34.76,0 -64.6,-12.03 -88.67,-36.54 -24.51,-24.06 -36.54,-53.92 -36.54,-88.67 0,-35.21 12.03,-65.5 35.64,-89.56 24.06,-24.51 53.92,-36.54 89.56,-36.54 17.38,0 33.42,3.1 48.57,9.8 15.16,6.68 28.51,15.13 39.67,25.84 11.58,11.13 20.49,24.06 27.61,39.67 6.68,16.03 10.25,32.97 10.25,50.8 0,17.36 -3.57,33.87 -10.25,49 -7.13,15.16 -16.03,28.53 -27.61,39.67 -11.15,11.13 -24.51,20.06 -39.67,26.74 -15.16,6.68 -31.19,9.8 -48.57,9.8z"/>
  <path id="_2" class="fil1" d="M6217.27 3101.47c-192.49,108.27 -396.58,162.2 -611.82,162.2 -135.91,0 -257.99,-23.18 -366.29,-69.96 -107.82,-46.34 -200.06,-111.4 -275.82,-194.28 -75.76,-83.34 -134.13,-182.25 -174.68,-297.68 -40.52,-115.4 -60.58,-241.96 -60.58,-380.54 0,-91.34 9.8,-179.13 29.39,-263.79 19.61,-84.21 48.57,-163.55 86.44,-237.5 37.89,-73.98 84.23,-140.81 139.03,-200.96 55.25,-60.17 118.08,-111.85 188.93,-155.07 71.3,-43.67 149.72,-77.11 234.83,-100.72 85.56,-23.61 177.8,-35.19 276.27,-35.19 185.38,0 351.15,32.97 496.87,98.92l0 191.61c-160.42,-88.69 -332.87,-132.78 -517.8,-132.78 -114.52,0 -217.45,20.94 -310.14,62.83 -92.24,41.44 -171.12,98.92 -236.18,172 -64.6,73.08 -114.95,159.52 -151.07,259.34 -35.64,99.82 -53.9,207.64 -54.8,324.39 -0.9,115.85 14.26,222.8 45.02,320.39 31.19,98.04 77.08,182.7 138.14,253.99 61.03,71.3 136.34,127 225.9,167.12 90.01,40.09 193.86,60.15 311.49,60.15 158.64,0 296.33,-32.99 413.08,-99.37l0 -571.72 -425.11 0 0 -157.74 598.89 0 0 824.38z"/>
  <polygon id="_3" class="fil1" points="6823.73,3231.58 6649.96,3231.58 6649.96,1360.04 6823.73,1360.04 "/>
  <path id="_4" class="fil1" d="M7238.14 2957.09c31.21,23.61 65.95,44.57 103.84,63.28 37.42,18.71 76.19,34.31 115.85,47.24 39.22,12.46 79.31,21.83 118.98,28.51 40.09,6.68 78.43,9.8 114.95,9.8 141.26,0 247.33,-27.19 317.71,-81.99 70.41,-54.82 105.6,-133.23 105.6,-235.73 0,-49.47 -8.46,-93.14 -24.96,-130.13 -16.48,-36.97 -41.87,-71.28 -76.64,-103.82 -35.21,-32.09 -78.86,-64.16 -131.89,-95.79 -53.02,-31.64 -115.85,-67.73 -188.03,-107.85 -79.76,-43.67 -148.39,-84.66 -205.44,-123.43 -57.03,-38.77 -103.37,-78.43 -139.46,-118.98 -36.09,-40.54 -62.83,-84.21 -79.76,-131.01 -16.93,-47.24 -25.41,-100.7 -25.41,-160.87 0,-75.74 16.05,-143.49 48.12,-203.64 32.54,-60.15 75.76,-111.4 130.58,-153.29 54.8,-42.32 118.98,-74.86 192.49,-97.57 73.53,-22.73 151.96,-33.87 235.28,-33.87 147.04,0 270.47,20.49 369.39,61.48l0 191.61c-110.5,-63.71 -239.73,-95.34 -388.55,-95.34 -55.7,0 -107.82,6.68 -157.29,20.04 -49.02,13.83 -91.79,33.44 -128.78,59.72 -36.99,26.29 -66.4,58.8 -87.34,97.59 -21.39,38.77 -32.09,83.76 -32.09,135.01 0,49.02 7.13,90.89 21.41,126.11 14.68,35.19 37.42,68.63 69.51,99.82 31.64,31.64 73.08,62.83 125.21,93.57 51.7,30.74 114.97,66.4 189.83,106.5 77.98,41.89 146.59,82.44 204.52,122.1 58.38,39.67 106.95,81.11 145.71,123.88 38.77,43.22 67.73,89.12 86.89,137.24 19.16,48.57 28.51,102.04 28.51,161.32 0,81.99 -15.16,153.72 -45.45,216.12 -30.76,62.38 -73.08,114.07 -127.88,155.07 -54.82,40.54 -119.88,71.73 -195.61,92.69 -75.76,20.94 -158.62,31.19 -249.09,31.19 -29.41,0 -64.63,-2.23 -105.62,-7.13 -40.99,-4.9 -81.99,-12.03 -123.88,-20.96 -41.87,-9.35 -81.54,-20.49 -119.41,-32.97 -37.89,-12.93 -68.18,-26.74 -91.81,-41.44l0 -204.09z"/>
  <path id="_5" class="fil1" d="M8858.78 2504.36l0 727.22 -173.78 0 0 -1871.54 483.46 0c98.49,0 185.38,12.03 261.14,36.54 75.76,24.51 139.91,59.72 192.06,106.07 52.57,45.9 92.24,102.47 118.98,169.77 27.16,66.83 40.54,143.49 40.54,229.93 0,86.89 -15.16,167.1 -45.9,240.63 -30.31,73.96 -73.98,137.24 -131.01,190.71 -57.05,53.92 -126.55,95.37 -208.54,125.66 -81.99,29.86 -174.68,45.02 -278.07,45.02l-258.89 0zm0 -983.9l0 823.48 248.21 0c160.85,0 283.4,-37.44 367.16,-111.85 83.34,-74.86 125.23,-180.48 125.23,-316.82 0,-263.36 -154.19,-394.82 -462.55,-394.82l-278.05 0z"/>
  <path id="_6" class="fil1" d="M10519.56 3474.89c-52.6,130.56 -112.3,227.25 -180.48,290.53 -67.73,62.83 -150.17,94.47 -246.41,94.47 -48.14,0 -88.24,-5.8 -121.65,-16.93l0 -156.42c19.16,7.15 38.77,12.05 57.93,15.61 19.61,3.57 39.67,5.35 59.25,5.35 54.82,0 102.49,-17.38 143.06,-51.7 40.09,-34.31 75.29,-86.44 104.7,-155.97l115.87 -274.47 -513.35 -1330.58 185.38 0 382.32 1058.76c5.35,14.26 10.25,29.84 15.16,47.67 4.9,17.83 9.35,35.64 13.81,53.02l6.25 0c4.45,-14.71 8.46,-29.86 12.48,-45 4,-15.16 9.35,-32.09 16.48,-50.37l405.93 -1064.09 176 0 -632.73 1580.12z"/>
  <path id="_7" class="fil1" d="M11965.52 3215.1c-57.48,28.96 -119.88,43.22 -187.61,43.22 -215.22,0 -323.07,-124.33 -323.07,-372.96l0 -843.54 -235.28 0 0 -147.04 235.28 0 0 -335.55 168.45 -54.8 0 390.35 342.22 0 0 147.04 -342.22 0 0 816.81c0,90.44 14.71,155.52 44.12,195.61 29.41,39.67 78.86,59.7 149.27,59.7 51.7,0 101.17,-15.58 148.84,-46.77l0 147.94z"/>
  <path id="_8" class="fil1" d="M13144.14 3231.58l0 -786.94c0,-149.72 -26.74,-260.22 -80.64,-331.07 -53.92,-70.86 -137.71,-106.5 -251.33,-106.5 -53.47,0 -104.72,10.68 -153.29,32.52 -48.57,21.83 -91.34,53.47 -127.43,94.04 -36.54,40.99 -65.5,90.89 -87.34,149.72 -21.83,58.82 -32.54,125.21 -32.54,199.64l0 748.6 -168.43 0 0 -1978.49 168.43 0 0 872.06 5.35 0c104.27,-175.13 253.56,-262.46 448.27,-262.46 148.84,0 260.69,45.9 335.1,137.26 74.86,91.34 112.3,226.35 112.3,404.6l0 827.04 -168.45 0z"/>
  <path id="_9" class="fil1" d="M14258.6 3263.67c-98.92,0 -188.03,-16.48 -266.47,-49.47 -78.86,-33.42 -146.14,-80.21 -201.84,-140.81 -55.72,-60.6 -98.04,-132.78 -127.45,-217.45 -29.86,-84.66 -44.57,-178.25 -44.57,-281.17 0,-111.4 15.61,-211.22 46.79,-299.01 31.64,-88.24 76.21,-162.65 133.68,-224.15 57.93,-61.48 127.88,-108.27 209.44,-140.36 81.99,-32.52 173.33,-48.57 274.05,-48.57 96.67,0 183.56,16.05 260.64,47.69 77.53,31.64 143.04,77.96 196.96,137.69 53.92,60.15 95.37,133.68 123.88,219.67 28.96,86.46 43.22,184.48 43.22,294.1 0,104.72 -15.16,199.64 -45,285.63 -29.86,86.01 -72.63,159.54 -128.33,221.47 -55.7,61.95 -123.43,109.62 -203.64,143.94 -79.76,33.87 -170.22,50.8 -271.37,50.8zm13.38 -1256.6c-73.53,0 -139.48,12.48 -198.74,37.87 -59.27,25.41 -110.07,61.95 -152.39,110.52 -42.34,48.12 -74.86,107.37 -97.59,177.78 -22.73,69.96 -33.87,149.74 -33.87,238.4 0,83.76 11.13,159.07 33.87,225.92 22.73,67.28 54.8,124.76 96.24,172.9 41.44,47.67 91.79,84.66 151.07,110.05 59.27,25.86 125.21,38.77 198.74,38.77 74.86,0 141.24,-12.48 198.72,-37.42 57.48,-24.51 106.05,-60.6 146.16,-108.3 40.09,-47.67 70.41,-105.6 90.89,-174.68 20.51,-68.61 30.76,-147.04 30.76,-235.28 0,-180.01 -40.12,-318.16 -120.33,-413.51 -80.21,-95.37 -194.71,-143.04 -343.53,-143.04z"/>
  <path id="_10" class="fil1" d="M16147.93 3231.58l0 -770.89c0,-302.58 -109.17,-453.62 -327.95,-453.62 -57.95,0 -111.85,11.58 -161.32,34.74 -49.47,23.18 -92.24,54.82 -128.33,95.82 -35.64,40.99 -64.18,89.56 -84.21,145.71 -20.51,56.15 -30.76,117.2 -30.76,182.25l0 765.99 -168.43 0 0 -1336.81 168.43 0 0 231.7 5.35 0c98.92,-176 248.21,-263.79 446.95,-263.79 146.16,0 257.56,47.24 334.2,142.16 76.21,94.92 114.52,232.15 114.52,411.73l0 815.01 -168.45 0z"/>
 </g>
</svg>
