<?xml version="1.0" encoding="UTF-8"?>
<!DOCTYPE svg PUBLIC "-//W3C//DTD SVG 1.1//EN" "http://www.w3.org/Graphics/SVG/1.1/DTD/svg11.dtd">
<!-- Creator: CorelDRAW 2021 (64-Bit) -->
<svg xmlns="http://www.w3.org/2000/svg" xml:space="preserve" width="88.8937mm" height="20.6889mm" version="1.1" style="shape-rendering:geometricPrecision; text-rendering:geometricPrecision; image-rendering:optimizeQuality; fill-rule:evenodd; clip-rule:evenodd"
viewBox="0 0 6188.54 1440.31"
 xmlns:xlink="http://www.w3.org/1999/xlink"
 xmlns:xodm="http://www.corel.com/coreldraw/odm/2003">
 <defs>
  <style type="text/css">
   <![CDATA[
    .fil1 {fill:black;fill-rule:nonzero}
    .fil0 {fill:black;fill-rule:nonzero}
   ]]>
  </style>
 </defs>
 <g id="Capa_x0020_1">
  <metadata id="CorelCorpID_0Corel-Layer"/>
  <g>
   <path class="fil0" d="M5907.85 98.7l-5258.39 0 0.11 -98.7 5258.39 0 0 0 -0.11 98.7zm266.78 285.05l-72.32 -32.8 0 0 3.37 -13.5 2.6 -13.14 1.88 -12.77 1.18 -12.38 0.52 -12 -0.13 -11.65 -0.73 -11.27 -1.34 -10.94 -1.91 -10.64 -2.46 -10.31 -3.02 -10 -3.58 -9.74 -4.14 -9.46 -4.69 -9.17 -5.28 -8.9 -5.85 -8.62 -6.42 -8.3 -7.01 -7.98 -7.58 -7.62 -8.19 -7.25 -8.76 -6.85 -9.35 -6.4 -9.92 -5.94 -10.5 -5.44 -11.05 -4.91 -11.61 -4.35 -12.16 -3.77 -12.67 -3.15 -13.17 -2.49 -13.69 -1.82 -14.17 -1.11 -14.65 -0.38 0.11 -98.7 17.72 0.46 17.33 1.36 16.93 2.25 16.51 3.12 16.08 4 15.59 4.84 15.16 5.67 14.65 6.52 14.15 7.34 13.61 8.15 13.07 8.95 12.48 9.75 11.88 10.52 11.26 11.31 10.59 12.06 9.9 12.8 9.16 13.51 8.41 14.2 7.62 14.88 6.77 15.49 5.92 16.07 5.01 16.62 4.09 17.1 3.13 17.51 2.17 17.91 1.19 18.23 0.19 18.48 -0.79 18.7 -1.8 18.86 -2.78 18.96 -3.77 19.05 -4.76 19.1 0 0zm-266.31 672.79l194 -705.59 72.32 32.8 -194 705.59 0 0 -72.32 -32.8zm-369.33 383.77l0.11 -98.7 0 0 14.92 -0.38 14.97 -1.13 15.02 -1.86 15.01 -2.57 15 -3.28 14.96 -3.96 14.86 -4.62 14.76 -5.28 14.63 -5.9 14.46 -6.52 14.26 -7.09 14.05 -7.68 13.8 -8.22 13.51 -8.74 13.21 -9.25 12.87 -9.73 12.51 -10.19 12.11 -10.61 11.7 -11.01 11.24 -11.39 10.77 -11.74 10.28 -12.06 9.75 -12.36 9.2 -12.63 8.63 -12.85 8.03 -13.06 7.43 -13.24 6.79 -13.37 6.13 -13.48 5.47 -13.58 4.78 -13.62 4.11 -13.68 72.32 32.8 -5.69 18.93 -6.52 18.55 -7.32 18.17 -8.07 17.75 -8.79 17.34 -9.46 16.88 -10.12 16.46 -10.74 16 -11.32 15.52 -11.87 15.06 -12.41 14.57 -12.91 14.07 -13.39 13.56 -13.84 13.04 -14.27 12.49 -14.67 11.94 -15.04 11.37 -15.41 10.79 -15.74 10.19 -16.04 9.54 -16.32 8.92 -16.59 8.26 -16.83 7.57 -17.04 6.88 -17.24 6.15 -17.4 5.41 -17.54 4.64 -17.67 3.86 -17.77 3.04 -17.84 2.21 -17.89 1.34 -17.91 0.46 0 0zm-5258.28 -98.7l5258.39 0 -0.11 98.7 -5258.39 0 0 0 0.11 -98.7zm-266.79 -285.06l72.32 32.8 0 0 -3.37 13.51 -2.6 13.13 -1.87 12.76 -1.18 12.38 -0.52 12.02 0.13 11.65 0.74 11.29 1.32 10.94 1.9 10.62 2.47 10.32 3.02 10.02 3.58 9.73 4.14 9.46 4.7 9.18 5.27 8.9 5.83 8.6 6.43 8.31 7 7.98 7.58 7.62 8.19 7.25 8.76 6.85 9.35 6.4 9.92 5.94 10.5 5.44 11.05 4.91 11.61 4.34 12.16 3.77 12.66 3.15 13.18 2.49 13.69 1.82 14.17 1.11 14.65 0.38 -0.11 98.7 -17.72 -0.46 -17.33 -1.36 -16.93 -2.25 -16.52 -3.12 -16.07 -4 -15.6 -4.83 -15.16 -5.68 -14.65 -6.52 -14.15 -7.34 -13.61 -8.15 -13.07 -8.95 -12.48 -9.75 -11.87 -10.52 -11.27 -11.31 -10.58 -12.06 -9.9 -12.79 -9.18 -13.52 -8.4 -14.2 -7.61 -14.87 -6.77 -15.49 -5.92 -16.08 -5.01 -16.62 -4.09 -17.1 -3.14 -17.54 -2.17 -17.91 -1.18 -18.23 -0.19 -18.47 0.79 -18.69 1.79 -18.85 2.79 -18.98 3.77 -19.05 4.76 -19.1 0 0zm266.31 -672.79l-194 705.59 -72.32 -32.8 194 -705.59 0 0 72.32 32.8zm369.34 -383.75l-0.11 98.7 0 0 -14.92 0.38 -14.97 1.13 -15.02 1.86 -15.01 2.57 -15 3.28 -14.96 3.96 -14.87 4.62 -14.76 5.27 -14.63 5.9 -14.46 6.52 -14.26 7.1 -14.06 7.68 -13.8 8.21 -13.51 8.74 -13.21 9.25 -12.87 9.72 -12.5 10.19 -12.12 10.61 -11.7 11.01 -11.25 11.39 -10.78 11.74 -10.28 12.06 -9.75 12.35 -9.2 12.63 -8.63 12.85 -8.03 13.05 -7.43 13.25 -6.79 13.37 -6.13 13.49 -5.47 13.57 -4.78 13.63 -4.11 13.67 -72.32 -32.8 5.69 -18.92 6.52 -18.56 7.32 -18.16 8.07 -17.75 8.79 -17.33 9.46 -16.88 10.12 -16.45 10.74 -16 11.32 -15.52 11.88 -15.07 12.41 -14.56 12.91 -14.07 13.39 -13.56 13.84 -13.03 14.26 -12.49 14.67 -11.94 15.06 -11.38 15.4 -10.78 15.73 -10.18 16.04 -9.56 16.33 -8.92 16.59 -8.26 16.83 -7.57 17.04 -6.88 17.24 -6.16 17.4 -5.4 17.54 -4.64 17.67 -3.86 17.77 -3.04 17.84 -2.21 17.89 -1.34 17.91 -0.46 0 0z"/>
  </g>
  <path class="fil1" d="M1042.53 1050.96l-91.59 -174.63c-9.13,-17.39 -17.82,-31.73 -26.38,-43.33 -8.4,-11.74 -17.24,-21.01 -26.22,-27.97 -8.99,-6.82 -18.7,-11.88 -28.99,-14.79 -10.43,-3.04 -21.88,-4.49 -34.63,-4.49l-66.95 0 0 265.2 -56.52 0 0 -608.66 175.21 0c22.9,0 45.07,3.33 66.51,10.15 21.3,6.81 40.29,16.81 56.95,30.14 16.67,13.33 30.14,30 40.14,50 10,20.14 15.07,43.48 15.07,69.99 0,21.45 -3.19,41.3 -9.7,59.42 -6.52,17.97 -15.8,34.06 -27.83,48.11 -12.03,13.91 -26.52,25.79 -43.62,35.5 -17.24,9.85 -36.52,17.1 -57.96,21.88l0 1.74c8.26,3.33 15.65,7.82 22.46,13.19 6.81,5.37 13.33,11.88 19.71,19.57 6.38,7.53 12.61,16.37 18.84,26.22 6.23,10 12.75,21.3 19.42,34.06l102.16 188.68 -66.08 0zm-274.77 -556.49l0 239.98 100.86 0c20.43,0 38.99,-2.9 55.94,-8.84 16.96,-5.94 31.45,-14.49 43.48,-25.5 12.03,-10.87 21.3,-24.21 27.97,-39.71 6.66,-15.5 10,-33.04 10,-52.46 0,-35.36 -11.31,-63.04 -34.06,-83.18 -22.75,-20.15 -55.65,-30.29 -98.69,-30.29l-105.5 0z"/>
  <path id="_1" class="fil1" d="M1229.05 1059.66c-11.31,0 -21.01,-3.91 -28.84,-11.88 -7.97,-7.82 -11.88,-17.54 -11.88,-28.84 0,-11.45 3.91,-21.3 11.59,-29.13 7.82,-7.97 17.54,-11.88 29.13,-11.88 5.65,0 10.87,1.01 15.8,3.19 4.93,2.17 9.27,4.92 12.9,8.4 3.77,3.62 6.66,7.82 8.98,12.9 2.17,5.21 3.33,10.72 3.33,16.52 0,5.65 -1.16,11.01 -3.33,15.94 -2.32,4.93 -5.21,9.28 -8.98,12.9 -3.63,3.62 -7.97,6.52 -12.9,8.7 -4.93,2.17 -10.14,3.19 -15.8,3.19z"/>
  <polygon id="_2" class="fil1" points="1791.89,1050.96 1791.89,766.63 1459.74,766.63 1459.74,1050.96 1403.23,1050.96 1403.23,442.31 1459.74,442.31 1459.74,715.33 1791.89,715.33 1791.89,442.31 1848.41,442.31 1848.41,1050.96 "/>
  <path id="_3" class="fil1" d="M2122.89 1130.09c-17.1,42.46 -36.52,73.91 -58.69,94.48 -22.03,20.43 -48.84,30.72 -80.14,30.72 -15.66,0 -28.7,-1.89 -39.56,-5.51l0 -50.87c6.23,2.33 12.61,3.92 18.84,5.08 6.38,1.16 12.9,1.74 19.27,1.74 17.83,0 33.33,-5.65 46.53,-16.81 13.04,-11.16 24.48,-28.11 34.05,-50.72l37.68 -89.26 -166.95 -432.73 60.29 0 124.34 344.33c1.74,4.64 3.33,9.7 4.93,15.5 1.59,5.8 3.04,11.59 4.49,17.24l2.03 0c1.45,-4.78 2.75,-9.71 4.06,-14.63 1.3,-4.93 3.04,-10.44 5.36,-16.38l132.02 -346.06 57.25 0 -205.78 513.88z"/>
  <path id="_4" class="fil1" d="M2704.58 1050.96l0 -76.22 -1.74 0c-14.35,27.39 -35.07,48.84 -61.74,63.91 -26.81,15.21 -57.24,22.75 -91.15,22.75 -27.24,0 -51.88,-5.08 -74.2,-15.07 -22.17,-10.14 -41.3,-24.64 -57.1,-43.62 -15.79,-18.98 -28.1,-41.88 -36.8,-68.84 -8.55,-26.95 -12.9,-57.39 -12.9,-91.3 0,-35.21 4.78,-67.24 14.2,-96.37 9.57,-28.98 23.04,-53.9 40.43,-74.78 17.39,-20.87 38.4,-36.95 62.89,-48.4 24.49,-11.45 51.74,-17.24 81.74,-17.24 62.61,0 107.53,25.07 134.63,75.21l1.74 0 0 -273.46 54.78 0 0 643.44 -54.78 0zm0 -262.59c0,-18.98 -3.33,-36.81 -9.85,-53.19 -6.52,-16.37 -15.51,-30.72 -27.1,-42.89 -11.74,-12.18 -25.65,-21.89 -42.03,-28.99 -16.23,-7.1 -34.2,-10.57 -53.77,-10.57 -21.59,0 -41.44,4.2 -59.56,12.75 -18.11,8.55 -33.76,20.72 -46.66,36.81 -12.9,15.94 -22.9,35.5 -30.14,58.4 -7.25,22.9 -10.87,48.98 -10.87,78.26 0,27.39 3.33,52.03 9.85,73.91 6.52,21.88 15.8,40.29 27.83,55.21 12.03,15.07 26.38,26.52 43.18,34.49 16.67,7.97 35.37,11.88 55.65,11.88 22.17,0 42.17,-3.91 59.85,-11.88 17.68,-7.97 32.75,-18.84 45.07,-32.75 12.32,-13.92 21.88,-30.14 28.55,-48.84 6.66,-18.7 10,-38.69 10,-60l0 -72.6z"/>
  <path id="_5" class="fil1" d="M3115.13 672c-12.75,-9.42 -29.13,-14.06 -49.27,-14.06 -14.35,0 -27.1,2.76 -38.12,8.26 -11.16,5.51 -20.73,12.89 -29.13,22.31 -8.4,9.28 -15.36,20.15 -21.16,32.46 -5.95,12.32 -10.58,25.07 -14.06,38.41 -3.63,13.33 -6.09,26.81 -7.69,40.28 -1.59,13.62 -2.32,26.52 -2.32,38.69l0 212.6 -53.9 0 0 -434.75 53.9 0 0 93.18 1.74 0c5.08,-15.8 11.45,-30.14 19.28,-42.61 7.82,-12.61 16.81,-23.34 26.96,-31.88 10.14,-8.7 21.3,-15.21 33.33,-19.71 12.03,-4.49 24.64,-6.81 37.97,-6.81 8.84,0 16.67,0.58 23.62,1.74 6.82,1.01 13.19,2.75 18.84,5.07l0 56.81z"/>
  <path id="_6" class="fil1" d="M3359.6 1061.4c-32.17,0 -61.15,-5.36 -86.66,-16.09 -25.65,-10.87 -47.53,-26.09 -65.64,-45.79 -18.12,-19.71 -31.88,-43.18 -41.45,-70.72 -9.71,-27.53 -14.49,-57.97 -14.49,-91.44 0,-36.23 5.08,-68.69 15.22,-97.24 10.29,-28.7 24.78,-52.9 43.48,-72.9 18.84,-19.99 41.59,-35.21 68.11,-45.65 26.66,-10.57 56.37,-15.8 89.12,-15.8 31.45,0 59.7,5.22 84.77,15.51 25.21,10.29 46.51,25.35 64.05,44.78 17.54,19.56 31.01,43.48 40.29,71.44 9.42,28.12 14.06,60 14.06,95.65 0,34.06 -4.93,64.93 -14.63,92.89 -9.71,27.97 -23.62,51.89 -41.74,72.03 -18.11,20.15 -40.14,35.65 -66.22,46.81 -25.94,11.01 -55.36,16.52 -88.26,16.52zm4.35 -408.67c-23.91,0 -45.36,4.06 -64.63,12.32 -19.28,8.26 -35.8,20.15 -49.56,35.94 -13.77,15.65 -24.35,34.92 -31.74,57.82 -7.39,22.75 -11.01,48.7 -11.01,77.53 0,27.24 3.62,51.73 11.01,73.47 7.39,21.88 17.82,40.57 31.3,56.23 13.48,15.5 29.85,27.53 49.13,35.79 19.28,8.41 40.72,12.61 64.63,12.61 24.35,0 45.94,-4.06 64.63,-12.17 18.69,-7.97 34.48,-19.71 47.53,-35.22 13.04,-15.5 22.9,-34.34 29.56,-56.81 6.67,-22.31 10,-47.82 10,-76.52 0,-58.54 -13.05,-103.47 -39.13,-134.48 -26.08,-31.01 -63.32,-46.52 -111.72,-46.52z"/>
  <polygon id="_7" class="fil1" points="3863.62,494.48 3863.62,1050.96 3807.1,1050.96 3807.1,494.48 3631.46,494.48 3631.46,442.31 4039.26,442.31 4039.26,494.48 "/>
  <path id="_8" class="fil1" d="M4218.37 1061.4c-32.17,0 -61.15,-5.36 -86.66,-16.09 -25.65,-10.87 -47.53,-26.09 -65.64,-45.79 -18.12,-19.71 -31.88,-43.18 -41.45,-70.72 -9.71,-27.53 -14.49,-57.97 -14.49,-91.44 0,-36.23 5.08,-68.69 15.22,-97.24 10.29,-28.7 24.78,-52.9 43.48,-72.9 18.84,-19.99 41.59,-35.21 68.11,-45.65 26.66,-10.57 56.37,-15.8 89.12,-15.8 31.45,0 59.7,5.22 84.77,15.51 25.22,10.29 46.52,25.35 64.05,44.78 17.54,19.56 31.01,43.48 40.29,71.44 9.42,28.12 14.06,60 14.06,95.65 0,34.06 -4.93,64.93 -14.63,92.89 -9.71,27.97 -23.62,51.89 -41.74,72.03 -18.11,20.15 -40.14,35.65 -66.23,46.81 -25.94,11.01 -55.36,16.52 -88.26,16.52zm4.35 -408.67c-23.91,0 -45.36,4.06 -64.63,12.32 -19.28,8.26 -35.8,20.15 -49.56,35.94 -13.77,15.65 -24.35,34.92 -31.74,57.82 -7.39,22.75 -11.01,48.7 -11.01,77.53 0,27.24 3.62,51.73 11.01,73.47 7.39,21.88 17.82,40.57 31.3,56.23 13.48,15.5 29.85,27.53 49.13,35.79 19.28,8.41 40.72,12.61 64.63,12.61 24.35,0 45.94,-4.06 64.63,-12.17 18.69,-7.97 34.49,-19.71 47.53,-35.22 13.04,-15.5 22.9,-34.34 29.56,-56.81 6.67,-22.31 10,-47.82 10,-76.52 0,-58.54 -13.05,-103.47 -39.13,-134.48 -26.09,-31.01 -63.32,-46.52 -111.73,-46.52z"/>
  <path id="_9" class="fil1" d="M4716.74 1061.4c-32.17,0 -61.15,-5.36 -86.66,-16.09 -25.65,-10.87 -47.53,-26.09 -65.64,-45.79 -18.12,-19.71 -31.88,-43.18 -41.45,-70.72 -9.71,-27.53 -14.49,-57.97 -14.49,-91.44 0,-36.23 5.08,-68.69 15.22,-97.24 10.29,-28.7 24.78,-52.9 43.48,-72.9 18.84,-19.99 41.59,-35.21 68.11,-45.65 26.66,-10.57 56.37,-15.8 89.12,-15.8 31.45,0 59.7,5.22 84.77,15.51 25.22,10.29 46.52,25.35 64.05,44.78 17.54,19.56 31.01,43.48 40.29,71.44 9.42,28.12 14.06,60 14.06,95.65 0,34.06 -4.93,64.93 -14.63,92.89 -9.71,27.97 -23.62,51.89 -41.74,72.03 -18.11,20.15 -40.14,35.65 -66.23,46.81 -25.94,11.01 -55.36,16.52 -88.26,16.52zm4.35 -408.67c-23.91,0 -45.36,4.06 -64.63,12.32 -19.28,8.26 -35.8,20.15 -49.56,35.94 -13.77,15.65 -24.35,34.92 -31.74,57.82 -7.39,22.75 -11.01,48.7 -11.01,77.53 0,27.24 3.62,51.73 11.01,73.47 7.39,21.88 17.82,40.57 31.3,56.23 13.48,15.5 29.85,27.53 49.13,35.79 19.28,8.41 40.72,12.61 64.63,12.61 24.35,0 45.94,-4.06 64.63,-12.17 18.69,-7.97 34.49,-19.71 47.53,-35.22 13.04,-15.5 22.9,-34.34 29.56,-56.81 6.67,-22.31 10,-47.82 10,-76.52 0,-58.54 -13.05,-103.47 -39.13,-134.48 -26.09,-31.01 -63.32,-46.52 -111.73,-46.52z"/>
  <polygon id="_10" class="fil1" points="5038.17,1050.96 5038.17,407.53 5092.94,407.53 5092.94,1050.96 "/>
  <path id="_11" class="fil1" d="M5208.3 972.85c8.26,6.52 17.1,12.32 26.66,17.39 9.57,5.08 19.56,9.42 29.71,13.19 10.14,3.63 20.29,6.38 30.72,8.26 10.29,1.88 20,2.75 29.42,2.75 64.34,0 96.52,-24.2 96.52,-72.46 0,-11.01 -2.32,-20.58 -6.82,-28.7 -4.49,-8.11 -11.01,-15.5 -19.42,-22.17 -8.55,-6.67 -18.69,-12.75 -30.58,-18.41 -11.88,-5.65 -25.36,-11.59 -40.29,-17.82 -20.15,-8.26 -37.39,-16.67 -51.89,-25.08 -14.34,-8.55 -26.22,-17.82 -35.64,-27.82 -9.28,-10.15 -16.23,-21.16 -20.73,-33.19 -4.49,-12.03 -6.82,-25.8 -6.82,-41.01 0,-19.28 4.2,-36.52 12.47,-51.45 8.4,-15.07 19.56,-27.83 33.62,-38.26 14.2,-10.44 30.44,-18.55 48.84,-24.05 18.55,-5.51 37.97,-8.26 58.26,-8.26 37.54,0 70.14,7.1 98.11,21.16l0 57.25c-32.46,-21.02 -67.53,-31.45 -105.07,-31.45 -13.48,0 -25.79,1.74 -36.95,5.07 -11.16,3.48 -20.73,8.26 -28.7,14.49 -7.82,6.23 -14.06,13.76 -18.4,22.46 -4.35,8.7 -6.52,18.26 -6.52,28.7 0,10.87 1.74,20.29 5.08,28.26 3.47,8.12 8.7,15.51 15.94,22.03 7.25,6.38 16.52,12.61 27.97,18.7 11.45,5.94 25.36,12.32 41.88,19.12 20.86,8.41 38.98,16.81 54.2,25.22 15.36,8.41 27.97,17.39 37.82,27.25 9.86,9.71 17.24,20.58 22.03,32.75 4.78,12.03 7.25,25.95 7.25,41.74 0,19.56 -4.06,37.1 -12.03,52.31 -8.11,15.36 -19.27,28.26 -33.47,38.69 -14.2,10.44 -31.01,18.41 -50.15,23.77 -19.12,5.36 -40,8.12 -62.6,8.12 -43.77,0 -80.58,-9.27 -110.43,-27.68l0 -60.87z"/>
 </g>
</svg>
